<svg width="19" height="19" viewBox="0 0 19 19" fill="none" xmlns="http://www.w3.org/2000/svg">
<path fill-rule="evenodd" clip-rule="evenodd" d="M3.583 0.157193C2.10934 0.629893 0.616768 2.08581 0.207984 3.44916C-0.106028 4.49664 -0.062762 5.7782 0.326186 6.95282C0.95479 8.85151 1.99195 11.159 2.55165 11.9041C2.70419 12.1072 2.829 12.3324 2.829 12.4048C2.829 12.652 4.41902 14.6658 5.27753 15.506C6.396 16.6004 6.72521 16.8308 8.55674 17.8003L9.35447 18.2226L10.2387 17.6749C10.7251 17.3738 11.2709 17.0506 11.4517 16.9568C11.8474 16.7513 13.6769 15.0473 14.6253 14.0009C16.6183 11.8017 17.3374 10.4862 18.3826 7.12682C18.955 5.28718 18.8525 3.58581 18.1031 2.48682C16.9332 0.771529 15.8116 0.0945518 14.0056 0.0136997C13.134 -0.0253923 12.8071 0.0118422 12.1766 0.22157C11.2798 0.520038 10.1969 1.2926 9.72915 1.9676L9.39982 2.44274L9.10263 2.05878C8.37021 1.11257 7.55125 0.491505 6.68206 0.223081C5.81775 -0.0438352 4.30974 -0.0759667 3.583 0.157193ZM15.009 4.79464C15.009 4.63305 14.8927 4.44594 14.7231 4.33482C14.5502 4.2216 14.0796 4.12405 13.5341 4.0882L12.631 4.02892L12.2648 4.41787C11.9589 4.74267 9.95233 8.65976 9.19833 10.4038C9.08117 10.675 8.93559 10.8968 8.87504 10.8968C8.81437 10.8968 8.14703 10.6548 7.39187 10.3592C5.55593 9.64019 5.38402 9.59414 5.30502 9.7997C5.24366 9.95978 6.07248 11.2493 7.01695 12.4628C7.26519 12.7818 7.54951 13.2131 7.64869 13.4211C7.87338 13.8923 8.26407 14.1578 8.60244 14.0694C8.75347 14.0299 9.13337 13.6105 9.51826 13.0584C9.87995 12.5394 10.2103 12.0887 10.2523 12.0568C10.3702 11.9673 12.5055 8.78887 12.6713 8.4563C12.752 8.29436 13.0553 7.85066 13.3454 7.4703C14.2839 6.23989 15.009 5.07362 15.009 4.79464Z" fill="#28B558"/>
</svg>
