<svg width="50" height="50" viewBox="0 0 50 50" fill="none" xmlns="http://www.w3.org/2000/svg">
<path fill-rule="evenodd" clip-rule="evenodd" d="M22.9171 0.0771914C21.7174 0.185303 21.1846 0.27033 19.3487 0.646427C17.0596 1.11515 13.5476 2.61237 11.4236 4.02499C10.7623 4.46475 10.2213 4.85877 10.2213 4.90049C10.2213 4.94236 10.4252 5.31731 10.6745 5.73384L11.1277 6.49106L12.3601 5.69613C13.9024 4.70148 15.9907 3.66337 17.3941 3.19393C18.3838 2.86286 18.8614 2.73539 21.1239 2.19842C21.6457 2.07453 22.9576 2.01116 24.9972 2.01116C27.0369 2.01116 28.3488 2.07453 28.8705 2.19842C29.3045 2.30137 30.0791 2.48762 30.592 2.61237C34.8162 3.63929 38.9768 6.10191 41.9343 9.3259C42.2945 9.71849 42.7362 10.2011 42.9158 10.3983C43.6433 11.1968 45.9403 14.9252 45.9414 15.3092C45.9416 15.3683 45.8436 15.4167 45.7237 15.4167C45.1374 15.4167 43.4419 16.9428 42.5771 18.2487L42.1737 18.8579H38.0497H33.9255L33.5611 18.3803C32.9372 17.5628 31.4096 16.1209 30.7703 15.7462C30.0595 15.3295 29.2907 15.263 28.9636 15.5899C28.641 15.9125 28.1475 18.2716 27.9353 20.5069C27.8434 21.4756 27.579 23.1091 27.2973 24.4499C27.1187 25.2995 27.1198 25.3452 27.3173 25.2232C27.4099 25.166 27.3776 25.2734 27.2456 25.4618C27.1136 25.6501 27.0056 26.0013 27.0056 26.2422C27.0056 26.4831 26.9022 26.8278 26.7758 27.0082C26.6494 27.1886 26.5843 27.3744 26.6311 27.4213C26.678 27.468 26.6612 27.5767 26.5939 27.6629C26.5265 27.7491 26.2258 28.4594 25.9254 29.2414C24.6205 32.6396 22.8328 35.1209 20.6703 36.5351C20.2236 36.8273 19.3521 37.2762 18.7337 37.5327C17.6248 37.9927 17.5776 37.9992 15.314 37.9995C12.633 37.9997 11.9422 37.8218 10.0779 36.6501C9.19792 36.097 9.28141 36.1661 8.08471 35.0026C5.03054 32.0329 3.04856 26.8146 3.04856 21.7431C3.04856 18.5409 3.77387 16.392 5.40525 14.7607C6.55418 13.6118 7.73296 13.0408 9.77705 12.6432C11.6015 12.2884 11.5401 12.376 11.1493 10.685C10.9124 9.65942 10.8082 9.35888 10.1872 7.90798C9.31297 5.86533 7.92619 4.23275 7.06546 4.23275C6.28908 4.23275 4.45902 6.34696 3.34867 8.5264C2.68534 9.82861 1.63424 12.5751 1.34274 13.7678C1.2657 14.0833 1.10661 14.7285 0.989406 15.2016C0.759878 16.1275 0.439397 18.0259 0.172283 20.0429C-0.0529416 21.7428 -0.0586791 26.691 0.162959 28.0345C0.701921 31.3017 1.36253 33.447 2.61361 35.9924C4.61897 40.0726 7.42754 43.3008 11.2255 45.891C13.363 47.3488 17.0213 48.9285 19.3487 49.3986C21.9815 49.9306 22.6137 49.9987 24.9255 50C30.2387 50.0029 34.5451 48.6992 38.9841 45.7438C41.5988 44.0031 43.8104 41.9154 45.0611 40.0071C45.2678 39.6917 45.4728 39.4013 45.5165 39.3619C45.5601 39.3225 45.8766 38.8417 46.2197 38.2934C49.7705 32.6191 50.8528 25.9503 49.327 19.1447C48.7852 16.7281 47.6542 14.0399 46.217 11.7535C45.8723 11.2052 45.4758 10.6317 45.3356 10.4787C45.1956 10.3259 45.081 10.1584 45.081 10.1063C45.081 9.72709 41.6675 6.22106 40.3699 5.26799C40.1853 5.13235 39.8625 4.88845 39.6526 4.72614C38.0607 3.49432 35.1649 2.02492 32.7438 1.22039C29.8675 0.264451 25.9263 -0.194092 22.9171 0.0771914ZM21.9531 4.59164C20.5975 5.51246 18.9714 8.7429 18.5674 11.3181C18.4429 12.111 18.4509 12.146 18.7862 12.2735C18.9777 12.3462 19.4043 12.4068 19.7346 12.4081C20.6055 12.4117 22.2671 12.8775 23.3512 13.422C24.3622 13.9297 25.595 15.0257 26.2241 15.9759C26.8987 16.9948 27.0233 16.7347 27.021 14.3124C27.0187 11.8423 26.4424 9.29207 25.3912 7.10044C24.9747 6.2321 24.1002 4.96115 23.679 4.61244C23.1056 4.13769 22.6301 4.13195 21.9531 4.59164ZM8.98575 20.7085C8.52856 20.9871 7.92361 22.0266 7.9292 22.5237C7.9348 23.0221 8.45712 23.9699 8.89982 24.2849C9.76385 24.8999 10.9181 24.5547 11.3772 23.5443C11.8692 22.461 11.5946 21.3871 10.6663 20.7629C10.0733 20.3642 9.57693 20.3481 8.98575 20.7085ZM19.6115 20.7023C18.3726 21.4574 18.2356 23.1828 19.3378 24.1501C20.0935 24.8133 20.8317 24.7757 21.5712 24.0367C22.0986 23.5095 22.1281 23.4328 22.1281 22.5891C22.1281 21.5867 21.8316 21.016 21.1198 20.6481C20.5718 20.3649 20.1397 20.3804 19.6115 20.7023ZM32.3411 22.9802C32.4596 23.1183 32.606 23.3279 32.6661 23.4462C32.7262 23.5645 32.623 23.4867 32.4368 23.2732C32.2212 23.026 31.9161 22.8652 31.5962 22.8301L31.0941 22.7752L31.6098 22.7523C31.9454 22.7374 32.2009 22.8169 32.3411 22.9802ZM30.9052 23.1906C30.4716 23.6239 30.9823 24.7493 31.5192 24.5436C31.6404 24.497 31.7396 24.5215 31.7396 24.5978C31.7396 24.6742 31.6481 24.7367 31.5362 24.7367C31.1189 24.7367 30.8418 24.5378 30.6611 24.1087C30.5052 23.738 30.5095 23.601 30.6877 23.2565C30.8045 23.0307 30.9394 22.8853 30.9875 22.9335C31.0356 22.9815 30.9986 23.0972 30.9052 23.1906ZM31.5962 23.3592C31.5962 23.3902 31.4961 23.454 31.3735 23.501C31.2459 23.5499 31.1883 23.5258 31.2386 23.4447C31.3228 23.3083 31.5962 23.2431 31.5962 23.3592ZM32.0973 23.4447C32.1475 23.5258 32.09 23.5499 31.9623 23.501C31.7138 23.4057 31.6683 23.3029 31.8746 23.3029C31.9489 23.3029 32.0491 23.3667 32.0973 23.4447ZM32.268 24.0467C32.2222 24.161 32.1882 24.127 32.1813 23.96C32.1752 23.8089 32.209 23.7243 32.2567 23.7719C32.3043 23.8195 32.3094 23.9432 32.268 24.0467ZM33.3442 24.7215C34.1388 25.0283 34.3818 25.4122 34.4408 26.4536L34.4963 27.4368L33.8854 27.879C33.1296 28.4263 32.5424 28.4491 31.8751 27.957C31.3084 27.5393 31.1899 27.307 31.1759 26.5862C31.1594 25.7414 31.4299 25.1862 32.0063 24.8818C32.5971 24.5699 32.8675 24.5375 33.3442 24.7215ZM44.3365 24.8838C44.8101 25.1724 45.2244 25.9031 45.2244 26.4499C45.2244 27.3919 44.4083 28.3213 43.5813 28.3213C41.9224 28.3213 41.2843 25.795 42.714 24.8874C43.2778 24.5297 43.7536 24.5285 44.3365 24.8838ZM29.2569 26.2754C29.2204 26.4149 29.1883 26.3354 29.1854 26.0988C29.1826 25.8623 29.2122 25.7481 29.2516 25.8452C29.2909 25.9423 29.2933 26.1358 29.2569 26.2754ZM27.3919 26.4187C27.3555 26.5583 27.3234 26.4788 27.3205 26.2422C27.3176 26.0056 27.3473 25.8915 27.3866 25.9886C27.4259 26.0857 27.4284 26.2792 27.3919 26.4187ZM39.4372 28.5516C39.7971 28.6481 39.922 28.9902 39.7587 29.4317C39.6334 29.7701 38.6249 30.4721 38.264 30.4721C37.6453 30.4721 36.4737 29.5438 36.4737 29.0536C36.4737 28.6451 36.9505 28.4647 38.026 28.4667C38.632 28.4677 39.2669 28.506 39.4372 28.5516ZM13.4491 29.4122C12.2019 29.7262 11.7993 30.062 11.7993 30.7882C11.7993 31.7809 12.3558 32.4813 13.668 33.14C14.6791 33.6476 15.7662 33.6148 16.7595 33.0468C18.5693 32.0119 19.0235 30.603 17.807 29.7982C17.2865 29.454 17.1006 29.4206 15.4886 29.3821C14.5247 29.3588 13.6069 29.3725 13.4491 29.4122Z" fill="#2A1E75"/>
</svg>
