<svg width="50" height="50" viewBox="0 0 50 50" fill="none" xmlns="http://www.w3.org/2000/svg">
<path fill-rule="evenodd" clip-rule="evenodd" d="M21.5035 0.0378565C20.3387 0.216116 17.6753 0.862222 16.6258 1.22115C12.4264 2.65687 7.12244 6.60921 4.84646 9.99873C4.65581 10.2826 4.17626 10.9953 3.78073 11.5828C2.1914 13.9426 1.00087 17.0047 0.31576 20.4947C-0.0117063 22.162 -0.0446267 22.7564 0.0390401 25.4846C0.122193 28.1938 0.200374 28.8404 0.663285 30.6466C1.57299 34.1968 2.89537 37.0051 4.95721 39.7661C7.5274 43.2074 10.1641 45.3959 14.1014 47.3557C14.778 47.6924 15.5498 48.0777 15.8168 48.2117C16.0837 48.3458 16.4028 48.4554 16.5259 48.4554C16.6488 48.4554 16.9704 48.571 17.2406 48.7124C17.5107 48.8537 17.9002 48.9698 18.1063 48.9705C18.3124 48.9711 18.6959 49.0536 18.9587 49.154C19.9188 49.5203 23.2604 50.0003 24.8468 50C26.4599 49.9995 30.1579 49.5094 31.2329 49.1538C31.5394 49.0523 32.2534 48.8165 32.8191 48.6298C35.1405 47.8642 36.5617 47.194 38.1573 46.1129C38.736 45.7207 39.2899 45.3713 39.3884 45.336C39.8151 45.1839 42.5553 42.6864 43.7378 41.3721C50.4816 33.8763 51.9156 22.9941 47.3717 13.7943C44.2479 7.46988 37.9127 2.31308 31.1904 0.622879C29.2069 0.124233 28.7855 0.0794961 25.5326 0.0216821C23.5995 -0.012731 21.7864 -0.00533189 21.5035 0.0378565ZM23.0654 9.33111C23.1702 9.46171 23.3051 9.56857 23.3655 9.56857C23.4258 9.56857 23.618 9.70398 23.7927 9.86968C24.4979 10.5385 25.2336 11.1172 25.3788 11.1172C25.4633 11.1172 25.5331 11.1753 25.5338 11.2462C25.5345 11.3171 25.8028 11.5583 26.1302 11.7822C26.4577 12.0059 26.9007 12.3429 27.1149 12.531C27.329 12.7191 27.832 13.1104 28.2325 13.4005C28.6332 13.6907 28.9212 13.9679 28.8727 14.0168C28.824 14.0655 28.6931 14.0137 28.5814 13.9017C28.2581 13.5772 26.8184 13.6587 26.0831 14.0435C25.1317 14.5411 24.5737 15.2056 24.2414 16.2361C23.9672 17.0863 23.9672 17.1926 24.2419 18.0428C24.4024 18.5397 24.7005 19.1309 24.9046 19.3569C25.1684 19.6492 25.2126 19.7901 25.058 19.8453C24.9385 19.8882 24.7317 20.0324 24.5989 20.1659C24.4658 20.2994 24.2935 20.4116 24.216 20.4152C24.1387 20.4188 23.8056 20.7673 23.476 21.1895L22.8767 21.9573H18.4183H13.9598V29.7002V37.4432H16.2284H18.497L18.543 33.3828L18.5889 29.3225L19.8319 29.2962C20.5156 29.2819 21.0747 29.2701 21.0744 29.2701C21.0739 29.2701 20.8428 29.7346 20.5606 30.3025C20.1361 31.1568 20.0474 31.5455 20.0469 32.5557C20.0462 33.8415 20.2175 34.1746 21.0024 34.4138C21.3376 34.516 21.3575 34.6399 21.342 36.5419C21.3256 38.5594 21.4974 39.8521 21.7816 39.8521C21.8644 39.8521 21.9322 39.9295 21.9322 40.0242C21.9322 40.1348 20.2221 40.1962 17.1448 40.1962H12.3573L11.8299 39.7508L11.3023 39.3053V30.5976V21.8898L10.6927 22.4828C10.1658 22.9954 9.96882 23.0757 9.24017 23.0757C8.09009 23.0757 7.61621 22.6098 7.61621 21.4793C7.61621 20.7089 7.6721 20.6117 8.68776 19.6175L9.75931 18.5684V15.4451V12.3216H11.5595H13.3597V14.0423C13.3597 15.1096 13.4269 15.7629 13.5365 15.7629C13.6339 15.7629 13.7578 15.6468 13.812 15.5048C13.8664 15.3629 14.0183 15.2467 14.1496 15.2467C14.2809 15.2467 14.3888 15.1886 14.3891 15.1177C14.3894 15.0468 14.8681 14.6015 15.4529 14.1283C16.0378 13.6551 16.6853 13.1131 16.8921 12.9238C17.3468 12.5074 17.7869 12.1334 19.0175 11.1172C20.617 9.79638 20.7732 9.66286 21.0566 9.37207C21.5565 8.85931 22.669 8.8366 23.0654 9.33111ZM29.0063 14.9004C30.484 15.9212 30.5056 17.9186 29.0514 19.0614C28.379 19.5898 26.6912 19.6146 25.9967 19.106C25.7474 18.9234 25.541 18.7104 25.5379 18.6328C25.535 18.555 25.4168 18.3752 25.2754 18.2333C25.1093 18.0665 25.0182 17.6407 25.0182 17.0297C25.0182 15.4245 26.1695 14.3281 27.7204 14.4563C28.1221 14.4895 28.7008 14.6892 29.0063 14.9004ZM35.6247 14.8529C35.8733 15.0356 36.2652 15.538 36.4958 15.9692C36.8773 16.683 36.8962 16.8163 36.7055 17.4548C36.267 18.9239 35.1493 19.6757 33.7251 19.4599C32.4171 19.2615 31.7047 18.39 31.7047 16.9884C31.7047 15.9038 32.217 15.0623 33.1313 14.6448C33.8326 14.3246 35.0437 14.4256 35.6247 14.8529ZM27.2834 20.0589C27.4921 20.3942 27.4975 20.3941 27.8725 20.0406L28.2509 19.6838L29.024 20.0713C29.4491 20.2845 30.0475 20.6883 30.3535 20.9689C30.8497 21.4237 30.932 21.449 31.112 21.2019C31.2231 21.0496 31.3954 20.9249 31.495 20.9249C31.5946 20.9249 31.7018 20.8667 31.7333 20.7958C31.821 20.598 32.7823 19.9548 33.1795 19.8281C33.4171 19.7524 33.6315 19.8245 33.8331 20.0482C34.1245 20.3714 34.1419 20.3717 34.4491 20.0634C34.8372 19.6738 35.2636 19.765 36.3253 20.4648C37.7313 21.3915 38.5086 22.4234 39.0045 24.0221C39.3189 25.0354 39.3379 24.9837 38.6434 25.0035C38.3106 25.013 37.9281 25.1124 37.7937 25.2245C37.4633 25.4996 37.2639 25.3432 37.0882 24.6709C36.9754 24.239 36.9289 24.5436 36.8886 25.9805C36.8451 27.532 36.8847 27.907 37.1197 28.1676C37.3869 28.4639 37.363 28.5285 36.7103 29.2726C35.9911 30.0925 35.3051 31.8419 35.3051 32.8559C35.3051 33.4189 35.7231 34.0019 36.1269 34.0019C36.3373 34.0019 36.3614 34.1949 36.267 35.1203C36.1711 36.0587 36.195 36.2387 36.4147 36.2387C36.8531 36.2387 36.7811 38.4702 36.3271 38.9592C35.813 39.5133 35.0893 39.4512 34.5489 38.8065C34.3047 38.5153 34.105 38.3708 34.105 38.4852C34.105 38.812 33.4074 39.3359 32.9721 39.3359C32.7552 39.3359 32.3811 39.1389 32.1411 38.898C31.7152 38.4704 31.7047 38.4021 31.7047 36.0589C31.7047 33.7586 31.69 33.6577 31.3558 33.6577C31.1638 33.6577 30.8166 33.5326 30.5843 33.3799C30.076 33.0455 30.0398 32.4605 30.4228 30.7681C31.0659 27.9262 31.0662 28.0808 30.4178 28.3869L30.005 28.5818L29.9547 33.6302L29.9045 38.6784L29.4997 39.0073C28.9921 39.4195 28.4727 39.4176 27.9757 39.0014C27.5958 38.6834 27.5894 38.6108 27.5527 34.2324L27.5155 29.7863L27.4242 34.1992C27.3408 38.2228 27.304 38.6442 27.0062 38.974C26.6473 39.3715 25.8897 39.4534 25.5669 39.1294C25.4254 38.9875 25.3611 38.1313 25.3611 36.3925C25.3611 33.92 25.3692 33.8642 25.7153 33.9549C26.1791 34.0767 26.8514 33.7066 26.9661 33.2665C27.205 32.3493 26.3085 29.8219 25.4616 29.025C25.0277 28.6167 24.8572 27.9796 25.182 27.9796C25.5307 27.9796 25.5912 26.739 25.2716 26.1435C25.0973 25.8184 24.974 25.263 24.9893 24.8709C25.0059 24.4469 24.9498 24.2163 24.8459 24.2807C24.7521 24.3388 24.6753 24.6238 24.6753 24.9135C24.6753 25.3368 24.6297 25.4027 24.4437 25.2479C24.1572 25.0092 23.5153 24.9533 23.0037 25.1223C22.5441 25.2742 22.5382 25.216 22.8928 24.0104C23.1764 23.0461 23.6353 22.0867 23.8609 21.986C23.9318 21.9544 23.9895 21.8577 23.9895 21.7709C23.9895 21.5923 24.6172 20.9249 24.7851 20.9249C24.8454 20.9249 24.9803 20.8156 25.0851 20.6819C25.3116 20.3929 26.551 19.7204 26.8574 19.7204C26.9758 19.7204 27.1675 19.8727 27.2834 20.0589ZM24.5629 25.7912C24.934 26.1111 25.0182 26.3315 25.0182 26.9816C25.0182 27.7019 24.962 27.8142 24.4408 28.1375C24.1233 28.3345 23.7221 28.4958 23.5493 28.4958C23.3113 28.4958 23.2833 28.5441 23.4337 28.695C23.5839 28.8458 23.6938 28.8428 23.8865 28.6823C24.0929 28.5102 24.2412 28.545 24.675 28.8667C25.8348 29.7274 26.6228 31.3292 26.5297 32.637C26.4812 33.3212 26.4315 33.3996 26.0469 33.3996C25.657 33.3996 25.6082 33.3164 25.5063 32.4786C25.4446 31.9718 25.2984 31.4685 25.1811 31.3601C25.0638 31.2516 25.0105 31.2404 25.0626 31.335C25.1146 31.4298 25.1067 33.2025 25.0448 35.2743C24.9457 38.597 24.8972 39.0635 24.633 39.2302C24.4098 39.3713 24.2412 39.3615 23.97 39.1915C23.709 39.0279 23.5537 39.0162 23.4207 39.1497C23.1232 39.4483 22.4739 39.3646 22.2811 39.0031C22.1785 38.8106 22.0914 37.1957 22.0748 35.1747C22.0589 33.252 22.0151 31.9803 21.9772 32.3483C21.8692 33.4014 21.0991 33.8532 20.79 33.0448C20.6567 32.6966 21.0206 30.9861 21.3731 30.3025C21.6472 29.771 22.4064 28.9758 22.9099 28.693C23.1609 28.552 23.1294 28.4663 22.6495 27.9847C21.9359 27.2688 21.9214 26.5874 22.6047 25.9015C23.2197 25.2843 23.9288 25.2444 24.5629 25.7912ZM39.7115 25.7857C40.5499 26.7096 40.566 27.181 39.7882 28.0259L39.3496 28.5023L39.9968 29.0376C40.8957 29.7813 41.4176 30.6796 41.6739 31.9254C41.9129 33.0872 41.7766 33.5717 41.2107 33.5717C40.9741 33.5717 40.8451 33.3577 40.6924 32.7114L40.4894 31.851L40.4716 32.6253C40.462 33.0512 40.5657 33.8642 40.7023 34.432C41.0207 35.7554 41.0228 35.7225 40.62 35.7225C40.3003 35.7225 40.2771 35.8373 40.2771 37.4222C40.2771 39.2585 40.1359 39.5847 39.3865 39.4782C39.0079 39.4243 38.9873 39.3419 38.8966 37.5292L38.8018 35.6365L38.7681 37.3792C38.7307 39.2943 38.57 39.6336 37.7934 39.4379C37.3675 39.3306 37.3625 39.3085 37.3625 37.5259C37.3625 35.8672 37.3363 35.7225 37.0359 35.7225C36.6649 35.7225 36.6784 35.2867 37.1206 33.0197C37.409 31.5417 37.4088 31.5439 37.1911 31.679C37.0968 31.7375 37.0196 32.0756 37.0196 32.4306C37.0196 33.3293 36.6825 33.7651 36.1917 33.5013C35.9434 33.368 35.8195 33.1383 35.8195 32.8112C35.8195 32.1912 36.3201 30.5612 36.6205 30.2028C36.7456 30.0535 36.8482 29.8792 36.8482 29.8157C36.8482 29.6753 37.4949 29.012 37.6319 29.012C37.6859 29.012 37.8486 28.8929 37.9938 28.7472C38.2312 28.5088 38.2129 28.4438 37.81 28.0964C37.1664 27.5413 37.1703 26.3496 37.8179 25.7912C38.4137 25.2773 39.2479 25.2749 39.7115 25.7857ZM38.3912 28.5608C38.3912 28.5964 38.4978 28.7146 38.6283 28.8232C38.8113 28.9755 38.8884 28.9607 38.9659 28.7583C39.0348 28.5778 38.9608 28.4958 38.7288 28.4958C38.5431 28.4958 38.3912 28.525 38.3912 28.5608Z" fill="#2A1E75"/>
</svg>
