<svg width="50" height="50" viewBox="0 0 50 50" fill="none" xmlns="http://www.w3.org/2000/svg">
<path fill-rule="evenodd" clip-rule="evenodd" d="M29.1325 0.351027C40.8331 2.36149 49.385 12.0176 49.9685 23.8771C50.2595 29.7902 48.5312 35.3492 44.9064 40.1594C42.4232 43.4546 39.5052 45.789 35.5039 47.6811C32.3389 49.1778 29.8192 49.8031 26.2788 49.9705C17.8822 50.3672 10.0779 46.7419 5.0958 40.1304C-1.6986 31.1143 -1.6986 18.9192 5.0958 9.9031C10.6598 2.51957 20.0455 -1.21043 29.1325 0.351027ZM21.6208 1.95387C19.1502 2.36102 17.3015 2.91221 15.3063 3.83594C8.79352 6.85151 4.25878 12.3081 2.39132 19.3764C1.88546 21.2907 1.79706 22.1312 1.79706 25.0167C1.79706 27.9023 1.88546 28.7428 2.39132 30.6571C3.53939 35.0026 5.49713 38.4113 8.61625 41.4961C10.8322 43.6878 12.4833 44.8564 15.1412 46.1136C26.7807 51.6202 40.7643 46.4847 46.2074 34.7047C47.6864 31.5041 48.2269 28.9104 48.2269 25.0167C48.2269 22.1312 48.1385 21.2907 47.6326 19.3764C45.8386 12.5866 41.5328 7.23504 35.4192 4.19631C31.1992 2.0991 25.9337 1.24319 21.6208 1.95387ZM16.9392 13.4495C18.8829 13.9558 19.6439 14.4787 22.4979 17.2696L25.012 19.7281L27.5261 17.2696C30.4076 14.4518 31.1504 13.9469 33.1794 13.4271C35.0424 12.9498 36.59 13.1303 38.5028 14.0477C42.2686 15.8538 43.9962 20.2374 42.5228 24.2478C42.0616 25.5032 41.4126 26.2169 33.5826 34.0805C28.9391 38.7441 25.0587 42.5325 24.9598 42.4993C24.8607 42.4661 21.0918 38.7558 16.5847 34.254C7.27383 24.9545 7.17678 24.8259 7.04231 21.6258C6.9801 20.1472 7.06849 19.4755 7.46397 18.4215C8.37162 16.0039 10.904 13.8246 13.3706 13.3384C14.8835 13.0403 15.4336 13.0573 16.9392 13.4495Z" fill="#2A1E75"/>
</svg>
