<svg width="51" height="51" viewBox="0 0 51 51" fill="none" xmlns="http://www.w3.org/2000/svg">
<mask id="path-1-inside-1_117:1591" fill="white">
<path fill-rule="evenodd" clip-rule="evenodd" d="M21.4152 0.335406C15.7511 1.37216 11.471 3.53023 7.60955 7.29637C3.72704 11.0829 1.35352 15.7372 0.333802 21.5635C0.110087 22.8419 0.110087 27.4779 0.333802 28.7563C1.33118 34.4552 3.51716 38.8322 7.30881 42.7226C11.1018 46.6146 15.7221 48.9721 21.5709 50.0002C22.8488 50.2249 27.4832 50.2249 28.7611 50.0002C34.6099 48.9721 39.2302 46.6146 43.0232 42.7226C46.8257 38.8212 48.998 34.4714 49.9982 28.7563C50.2219 27.4779 50.2219 22.8419 49.9982 21.5635C48.998 15.8484 46.8257 11.4986 43.0232 7.59721C39.2299 3.70499 34.5981 1.34115 28.7611 0.318896C27.571 0.110444 22.5831 0.121784 21.4152 0.335406ZM36.6685 14.9254C36.5908 13.7144 36.5478 13.5916 36.0407 13.1389L35.4963 12.6528H22.6461H9.79602L9.22923 13.2198L8.66244 13.7867V17.1348V20.4829L9.09837 20.7686C9.48929 21.0249 9.57981 21.0289 9.97356 20.8081L10.4128 20.5618L10.4962 17.5661L10.5795 14.5705H22.6655H34.7514V22.0748V29.5791H22.6655H10.5795L10.5342 26.2565C10.5055 24.1497 10.4218 22.8531 10.3055 22.7128C10.0863 22.4487 9.43261 22.4247 8.98484 22.6643C8.68061 22.8272 8.66244 23.0504 8.66261 26.6249C8.66277 30.313 8.67278 30.4242 9.03769 30.8453C9.5598 31.4475 10.0301 31.6636 10.8186 31.6636H11.4964V32.4797C11.4964 33.5098 12.155 34.3318 12.9802 34.3318H13.4968V35.4913C13.4968 36.129 13.5865 36.8476 13.696 37.088C13.7539 37.215 13.7965 37.3243 13.8613 37.4184C14.2755 38.0203 15.5922 38.0005 27.5395 38.0005H40.2653L40.8424 37.5186L41.4195 37.0367L41.4706 28.8053C41.5172 21.2865 41.4969 20.5269 41.2353 20.0308C40.8799 19.3564 40.1723 18.9897 39.2267 18.9897H38.5022V18.015C38.5022 16.9067 38.2297 16.5263 37.3005 16.3374L36.7519 16.226L36.6685 14.9254ZM18.1645 16.4883C18.1645 16.3245 18.0458 16.1449 17.9008 16.0892C17.7557 16.0335 17.0523 15.988 16.3376 15.988C14.9563 15.988 14.7893 16.0712 14.6031 16.8518C14.4637 17.4367 14.0701 17.816 13.4805 17.9341C13.2186 17.9865 12.926 18.1235 12.8305 18.2386C12.7183 18.3739 12.6728 19.7972 12.7018 22.2619L12.7467 26.0758L13.426 26.219C14.151 26.3719 14.4847 26.7403 14.6576 27.5779L14.7608 28.0782H16.421C17.97 28.0782 18.0811 28.0559 18.0811 27.7447C18.0811 27.4489 17.9423 27.4018 16.8497 27.3278C15.6606 27.2472 15.6083 27.2256 15.3244 26.6944C15.0013 26.0898 14.1951 25.3272 13.8789 25.3268C13.7302 25.3267 13.6647 24.495 13.6289 22.1527L13.5802 18.9787L14.263 18.6482C14.7383 18.4182 15.0423 18.1162 15.2632 17.6551L15.5806 16.9924L16.6088 16.9904C17.8409 16.9882 18.1645 16.8837 18.1645 16.4883ZM30.5005 16.567C30.5005 16.3599 30.3818 16.1449 30.2368 16.0892C29.7485 15.9018 27.242 15.9792 27.0331 16.1881C26.4733 16.7481 26.9122 16.9886 28.4934 16.9886C29.589 16.9886 29.6332 17.0047 29.8287 17.4768C30.0601 18.0357 30.3851 18.3629 31.0538 18.7099L31.5231 18.9534L31.5624 22.1085L31.6017 25.2636L30.9418 25.5848C30.5789 25.7614 30.2474 26.0382 30.2051 26.2C30.1628 26.3616 30.0739 26.494 30.0077 26.494C29.9414 26.494 29.8017 26.6816 29.6973 26.9109C29.5213 27.2974 29.4231 27.3278 28.3467 27.3278C27.1479 27.3278 26.8207 27.4947 27.1775 27.9246C27.3382 28.1184 27.7134 28.1629 28.8747 28.1259L30.3656 28.0782L30.5874 27.432C30.8629 26.6286 30.9683 26.5232 31.7716 26.247L32.4176 26.0249L32.4623 22.0976L32.5069 18.1704L31.8461 17.9923C31.1136 17.795 30.5005 17.1455 30.5005 16.567ZM23.1898 18.0725C23.1552 17.8891 23.0419 17.6838 22.9379 17.6164C22.5575 17.37 22.4891 17.426 22.2936 18.1444C22.2579 18.2756 21.9705 18.4694 21.6553 18.575C20.5642 18.9398 19.9571 20.5486 20.5767 21.4333C20.7114 21.6257 21.1615 21.9429 21.5769 22.1383L22.3321 22.4934V23.5947V24.6958L21.8736 24.5874C21.6216 24.5277 21.2623 24.2944 21.0755 24.0689C20.4703 23.3385 19.8129 23.6799 20.2249 24.5107C20.3958 24.8549 20.7711 25.0985 21.9987 25.6623C22.1362 25.7256 22.2729 25.9805 22.3024 26.229C22.3789 26.8717 23.0451 26.7741 23.1646 26.1028C23.2313 25.7279 23.3891 25.5801 23.9157 25.4002C24.8583 25.0782 25.166 24.6321 25.166 23.5883C25.166 22.8576 25.0938 22.653 24.7076 22.2903C24.4555 22.0536 24.0053 21.8085 23.7074 21.7456L23.1656 21.6314V20.4774C23.1656 19.1623 23.2948 19.0693 24.0293 19.8557C24.4174 20.2714 24.5854 20.3512 24.7946 20.2191C24.9421 20.126 25.0908 19.9658 25.125 19.863C25.2104 19.6072 24.0289 18.5176 23.5997 18.4559C23.4083 18.4284 23.2243 18.2563 23.1898 18.0725ZM18.7158 19.1605C19.2229 18.9984 19.3401 18.8853 19.2992 18.5985C19.2326 18.1309 18.7635 18.091 17.9001 18.4796C16.671 19.0326 15.664 20.6893 15.664 22.1582C15.664 22.9555 16.0817 24.1341 16.5556 24.6738C17.584 25.8448 19.4268 26.4863 19.3014 25.6297C19.2662 25.3904 19.082 25.2216 18.7636 25.1369C18.15 24.9738 17.1941 24.0714 16.8944 23.3725C16.1806 21.7084 17.0523 19.6924 18.7158 19.1605ZM28.6179 24.795C30.3943 22.956 29.7577 19.6079 27.4232 18.5101C26.548 18.0985 25.8618 18.0532 25.7295 18.398C25.5863 18.7714 25.76 18.926 26.581 19.156C27.3682 19.3764 28.2152 20.158 28.5112 20.9368C28.7366 21.5298 28.702 22.7519 28.4422 23.3725C28.172 24.0184 26.9512 25.1599 26.531 25.1599C26.3654 25.1599 26.0872 25.2643 25.9127 25.392C25.647 25.5863 25.6306 25.6665 25.812 25.8851C26.2344 26.3943 27.5772 25.8726 28.6179 24.795Z"/>
<path d="M36.7797 17.2666C36.7185 17.3276 36.6683 20.3106 36.6683 23.8953L36.6682 30.4129L36.2933 30.8453C36.087 31.0831 35.7545 31.3644 35.5543 31.4707C35.2889 31.6112 32.114 31.6636 23.8434 31.6636H12.4966V32.3807C12.4966 32.7751 12.5866 33.1878 12.6966 33.2979C12.8373 33.4386 13.7809 33.498 15.8757 33.498H18.8545L18.8013 33.8732C18.7505 34.2309 18.6679 34.2506 17.0308 34.2961L15.3135 34.3436L15.3637 35.2133L15.4139 36.0828L27.0831 36.1288C33.5012 36.154 38.921 36.1338 39.1274 36.084L39.5025 35.9931V28.492V20.9908H39.0023H38.5022V27.3156V33.6406L38.063 33.9861C37.6322 34.3251 37.4672 34.3318 29.4123 34.3318C22.0598 34.3318 21.1902 34.3041 21.0991 34.0666C21.0431 33.9207 21.0396 33.7331 21.0911 33.6497C21.1453 33.562 24.5771 33.498 29.2267 33.498C35.2592 33.498 37.3186 33.448 37.4687 33.2979C37.6185 33.1479 37.6687 31.1423 37.6687 25.2991C37.6687 17.7597 37.6581 17.4949 37.3463 17.3279C36.9666 17.1246 36.9259 17.1201 36.7797 17.2666Z"/>
<path d="M23.1656 23.659C23.1656 24.7402 23.2991 24.8644 23.9619 24.4C24.6432 23.9227 24.2673 22.6585 23.4441 22.6585C23.2148 22.6585 23.1656 22.8352 23.1656 23.659Z"/>
<path d="M21.6971 19.6159C21.1723 20.07 21.0941 20.5863 21.4901 20.9823C22.0965 21.589 22.3321 21.4309 22.3321 20.417C22.3321 19.3881 22.1809 19.1973 21.6971 19.6159Z"/>
</mask>
<path fill-rule="evenodd" clip-rule="evenodd" d="M21.4152 0.335406C15.7511 1.37216 11.471 3.53023 7.60955 7.29637C3.72704 11.0829 1.35352 15.7372 0.333802 21.5635C0.110087 22.8419 0.110087 27.4779 0.333802 28.7563C1.33118 34.4552 3.51716 38.8322 7.30881 42.7226C11.1018 46.6146 15.7221 48.9721 21.5709 50.0002C22.8488 50.2249 27.4832 50.2249 28.7611 50.0002C34.6099 48.9721 39.2302 46.6146 43.0232 42.7226C46.8257 38.8212 48.998 34.4714 49.9982 28.7563C50.2219 27.4779 50.2219 22.8419 49.9982 21.5635C48.998 15.8484 46.8257 11.4986 43.0232 7.59721C39.2299 3.70499 34.5981 1.34115 28.7611 0.318896C27.571 0.110444 22.5831 0.121784 21.4152 0.335406ZM36.6685 14.9254C36.5908 13.7144 36.5478 13.5916 36.0407 13.1389L35.4963 12.6528H22.6461H9.79602L9.22923 13.2198L8.66244 13.7867V17.1348V20.4829L9.09837 20.7686C9.48929 21.0249 9.57981 21.0289 9.97356 20.8081L10.4128 20.5618L10.4962 17.5661L10.5795 14.5705H22.6655H34.7514V22.0748V29.5791H22.6655H10.5795L10.5342 26.2565C10.5055 24.1497 10.4218 22.8531 10.3055 22.7128C10.0863 22.4487 9.43261 22.4247 8.98484 22.6643C8.68061 22.8272 8.66244 23.0504 8.66261 26.6249C8.66277 30.313 8.67278 30.4242 9.03769 30.8453C9.5598 31.4475 10.0301 31.6636 10.8186 31.6636H11.4964V32.4797C11.4964 33.5098 12.155 34.3318 12.9802 34.3318H13.4968V35.4913C13.4968 36.129 13.5865 36.8476 13.696 37.088C13.7539 37.215 13.7965 37.3243 13.8613 37.4184C14.2755 38.0203 15.5922 38.0005 27.5395 38.0005H40.2653L40.8424 37.5186L41.4195 37.0367L41.4706 28.8053C41.5172 21.2865 41.4969 20.5269 41.2353 20.0308C40.8799 19.3564 40.1723 18.9897 39.2267 18.9897H38.5022V18.015C38.5022 16.9067 38.2297 16.5263 37.3005 16.3374L36.7519 16.226L36.6685 14.9254ZM18.1645 16.4883C18.1645 16.3245 18.0458 16.1449 17.9008 16.0892C17.7557 16.0335 17.0523 15.988 16.3376 15.988C14.9563 15.988 14.7893 16.0712 14.6031 16.8518C14.4637 17.4367 14.0701 17.816 13.4805 17.9341C13.2186 17.9865 12.926 18.1235 12.8305 18.2386C12.7183 18.3739 12.6728 19.7972 12.7018 22.2619L12.7467 26.0758L13.426 26.219C14.151 26.3719 14.4847 26.7403 14.6576 27.5779L14.7608 28.0782H16.421C17.97 28.0782 18.0811 28.0559 18.0811 27.7447C18.0811 27.4489 17.9423 27.4018 16.8497 27.3278C15.6606 27.2472 15.6083 27.2256 15.3244 26.6944C15.0013 26.0898 14.1951 25.3272 13.8789 25.3268C13.7302 25.3267 13.6647 24.495 13.6289 22.1527L13.5802 18.9787L14.263 18.6482C14.7383 18.4182 15.0423 18.1162 15.2632 17.6551L15.5806 16.9924L16.6088 16.9904C17.8409 16.9882 18.1645 16.8837 18.1645 16.4883ZM30.5005 16.567C30.5005 16.3599 30.3818 16.1449 30.2368 16.0892C29.7485 15.9018 27.242 15.9792 27.0331 16.1881C26.4733 16.7481 26.9122 16.9886 28.4934 16.9886C29.589 16.9886 29.6332 17.0047 29.8287 17.4768C30.0601 18.0357 30.3851 18.3629 31.0538 18.7099L31.5231 18.9534L31.5624 22.1085L31.6017 25.2636L30.9418 25.5848C30.5789 25.7614 30.2474 26.0382 30.2051 26.2C30.1628 26.3616 30.0739 26.494 30.0077 26.494C29.9414 26.494 29.8017 26.6816 29.6973 26.9109C29.5213 27.2974 29.4231 27.3278 28.3467 27.3278C27.1479 27.3278 26.8207 27.4947 27.1775 27.9246C27.3382 28.1184 27.7134 28.1629 28.8747 28.1259L30.3656 28.0782L30.5874 27.432C30.8629 26.6286 30.9683 26.5232 31.7716 26.247L32.4176 26.0249L32.4623 22.0976L32.5069 18.1704L31.8461 17.9923C31.1136 17.795 30.5005 17.1455 30.5005 16.567ZM23.1898 18.0725C23.1552 17.8891 23.0419 17.6838 22.9379 17.6164C22.5575 17.37 22.4891 17.426 22.2936 18.1444C22.2579 18.2756 21.9705 18.4694 21.6553 18.575C20.5642 18.9398 19.9571 20.5486 20.5767 21.4333C20.7114 21.6257 21.1615 21.9429 21.5769 22.1383L22.3321 22.4934V23.5947V24.6958L21.8736 24.5874C21.6216 24.5277 21.2623 24.2944 21.0755 24.0689C20.4703 23.3385 19.8129 23.6799 20.2249 24.5107C20.3958 24.8549 20.7711 25.0985 21.9987 25.6623C22.1362 25.7256 22.2729 25.9805 22.3024 26.229C22.3789 26.8717 23.0451 26.7741 23.1646 26.1028C23.2313 25.7279 23.3891 25.5801 23.9157 25.4002C24.8583 25.0782 25.166 24.6321 25.166 23.5883C25.166 22.8576 25.0938 22.653 24.7076 22.2903C24.4555 22.0536 24.0053 21.8085 23.7074 21.7456L23.1656 21.6314V20.4774C23.1656 19.1623 23.2948 19.0693 24.0293 19.8557C24.4174 20.2714 24.5854 20.3512 24.7946 20.2191C24.9421 20.126 25.0908 19.9658 25.125 19.863C25.2104 19.6072 24.0289 18.5176 23.5997 18.4559C23.4083 18.4284 23.2243 18.2563 23.1898 18.0725ZM18.7158 19.1605C19.2229 18.9984 19.3401 18.8853 19.2992 18.5985C19.2326 18.1309 18.7635 18.091 17.9001 18.4796C16.671 19.0326 15.664 20.6893 15.664 22.1582C15.664 22.9555 16.0817 24.1341 16.5556 24.6738C17.584 25.8448 19.4268 26.4863 19.3014 25.6297C19.2662 25.3904 19.082 25.2216 18.7636 25.1369C18.15 24.9738 17.1941 24.0714 16.8944 23.3725C16.1806 21.7084 17.0523 19.6924 18.7158 19.1605ZM28.6179 24.795C30.3943 22.956 29.7577 19.6079 27.4232 18.5101C26.548 18.0985 25.8618 18.0532 25.7295 18.398C25.5863 18.7714 25.76 18.926 26.581 19.156C27.3682 19.3764 28.2152 20.158 28.5112 20.9368C28.7366 21.5298 28.702 22.7519 28.4422 23.3725C28.172 24.0184 26.9512 25.1599 26.531 25.1599C26.3654 25.1599 26.0872 25.2643 25.9127 25.392C25.647 25.5863 25.6306 25.6665 25.812 25.8851C26.2344 26.3943 27.5772 25.8726 28.6179 24.795Z" fill="#2A1E75"/>
<path d="M36.7797 17.2666C36.7185 17.3276 36.6683 20.3106 36.6683 23.8953L36.6682 30.4129L36.2933 30.8453C36.087 31.0831 35.7545 31.3644 35.5543 31.4707C35.2889 31.6112 32.114 31.6636 23.8434 31.6636H12.4966V32.3807C12.4966 32.7751 12.5866 33.1878 12.6966 33.2979C12.8373 33.4386 13.7809 33.498 15.8757 33.498H18.8545L18.8013 33.8732C18.7505 34.2309 18.6679 34.2506 17.0308 34.2961L15.3135 34.3436L15.3637 35.2133L15.4139 36.0828L27.0831 36.1288C33.5012 36.154 38.921 36.1338 39.1274 36.084L39.5025 35.9931V28.492V20.9908H39.0023H38.5022V27.3156V33.6406L38.063 33.9861C37.6322 34.3251 37.4672 34.3318 29.4123 34.3318C22.0598 34.3318 21.1902 34.3041 21.0991 34.0666C21.0431 33.9207 21.0396 33.7331 21.0911 33.6497C21.1453 33.562 24.5771 33.498 29.2267 33.498C35.2592 33.498 37.3186 33.448 37.4687 33.2979C37.6185 33.1479 37.6687 31.1423 37.6687 25.2991C37.6687 17.7597 37.6581 17.4949 37.3463 17.3279C36.9666 17.1246 36.9259 17.1201 36.7797 17.2666Z" fill="#2A1E75"/>
<path d="M23.1656 23.659C23.1656 24.7402 23.2991 24.8644 23.9619 24.4C24.6432 23.9227 24.2673 22.6585 23.4441 22.6585C23.2148 22.6585 23.1656 22.8352 23.1656 23.659Z" fill="#2A1E75"/>
<path d="M21.6971 19.6159C21.1723 20.07 21.0941 20.5863 21.4901 20.9823C22.0965 21.589 22.3321 21.4309 22.3321 20.417C22.3321 19.3881 22.1809 19.1973 21.6971 19.6159Z" fill="#2A1E75"/>
<path fill-rule="evenodd" clip-rule="evenodd" d="M21.4152 0.335406C15.7511 1.37216 11.471 3.53023 7.60955 7.29637C3.72704 11.0829 1.35352 15.7372 0.333802 21.5635C0.110087 22.8419 0.110087 27.4779 0.333802 28.7563C1.33118 34.4552 3.51716 38.8322 7.30881 42.7226C11.1018 46.6146 15.7221 48.9721 21.5709 50.0002C22.8488 50.2249 27.4832 50.2249 28.7611 50.0002C34.6099 48.9721 39.2302 46.6146 43.0232 42.7226C46.8257 38.8212 48.998 34.4714 49.9982 28.7563C50.2219 27.4779 50.2219 22.8419 49.9982 21.5635C48.998 15.8484 46.8257 11.4986 43.0232 7.59721C39.2299 3.70499 34.5981 1.34115 28.7611 0.318896C27.571 0.110444 22.5831 0.121784 21.4152 0.335406ZM36.6685 14.9254C36.5908 13.7144 36.5478 13.5916 36.0407 13.1389L35.4963 12.6528H22.6461H9.79602L9.22923 13.2198L8.66244 13.7867V17.1348V20.4829L9.09837 20.7686C9.48929 21.0249 9.57981 21.0289 9.97356 20.8081L10.4128 20.5618L10.4962 17.5661L10.5795 14.5705H22.6655H34.7514V22.0748V29.5791H22.6655H10.5795L10.5342 26.2565C10.5055 24.1497 10.4218 22.8531 10.3055 22.7128C10.0863 22.4487 9.43261 22.4247 8.98484 22.6643C8.68061 22.8272 8.66244 23.0504 8.66261 26.6249C8.66277 30.313 8.67278 30.4242 9.03769 30.8453C9.5598 31.4475 10.0301 31.6636 10.8186 31.6636H11.4964V32.4797C11.4964 33.5098 12.155 34.3318 12.9802 34.3318H13.4968V35.4913C13.4968 36.129 13.5865 36.8476 13.696 37.088C13.7539 37.215 13.7965 37.3243 13.8613 37.4184C14.2755 38.0203 15.5922 38.0005 27.5395 38.0005H40.2653L40.8424 37.5186L41.4195 37.0367L41.4706 28.8053C41.5172 21.2865 41.4969 20.5269 41.2353 20.0308C40.8799 19.3564 40.1723 18.9897 39.2267 18.9897H38.5022V18.015C38.5022 16.9067 38.2297 16.5263 37.3005 16.3374L36.7519 16.226L36.6685 14.9254ZM18.1645 16.4883C18.1645 16.3245 18.0458 16.1449 17.9008 16.0892C17.7557 16.0335 17.0523 15.988 16.3376 15.988C14.9563 15.988 14.7893 16.0712 14.6031 16.8518C14.4637 17.4367 14.0701 17.816 13.4805 17.9341C13.2186 17.9865 12.926 18.1235 12.8305 18.2386C12.7183 18.3739 12.6728 19.7972 12.7018 22.2619L12.7467 26.0758L13.426 26.219C14.151 26.3719 14.4847 26.7403 14.6576 27.5779L14.7608 28.0782H16.421C17.97 28.0782 18.0811 28.0559 18.0811 27.7447C18.0811 27.4489 17.9423 27.4018 16.8497 27.3278C15.6606 27.2472 15.6083 27.2256 15.3244 26.6944C15.0013 26.0898 14.1951 25.3272 13.8789 25.3268C13.7302 25.3267 13.6647 24.495 13.6289 22.1527L13.5802 18.9787L14.263 18.6482C14.7383 18.4182 15.0423 18.1162 15.2632 17.6551L15.5806 16.9924L16.6088 16.9904C17.8409 16.9882 18.1645 16.8837 18.1645 16.4883ZM30.5005 16.567C30.5005 16.3599 30.3818 16.1449 30.2368 16.0892C29.7485 15.9018 27.242 15.9792 27.0331 16.1881C26.4733 16.7481 26.9122 16.9886 28.4934 16.9886C29.589 16.9886 29.6332 17.0047 29.8287 17.4768C30.0601 18.0357 30.3851 18.3629 31.0538 18.7099L31.5231 18.9534L31.5624 22.1085L31.6017 25.2636L30.9418 25.5848C30.5789 25.7614 30.2474 26.0382 30.2051 26.2C30.1628 26.3616 30.0739 26.494 30.0077 26.494C29.9414 26.494 29.8017 26.6816 29.6973 26.9109C29.5213 27.2974 29.4231 27.3278 28.3467 27.3278C27.1479 27.3278 26.8207 27.4947 27.1775 27.9246C27.3382 28.1184 27.7134 28.1629 28.8747 28.1259L30.3656 28.0782L30.5874 27.432C30.8629 26.6286 30.9683 26.5232 31.7716 26.247L32.4176 26.0249L32.4623 22.0976L32.5069 18.1704L31.8461 17.9923C31.1136 17.795 30.5005 17.1455 30.5005 16.567ZM23.1898 18.0725C23.1552 17.8891 23.0419 17.6838 22.9379 17.6164C22.5575 17.37 22.4891 17.426 22.2936 18.1444C22.2579 18.2756 21.9705 18.4694 21.6553 18.575C20.5642 18.9398 19.9571 20.5486 20.5767 21.4333C20.7114 21.6257 21.1615 21.9429 21.5769 22.1383L22.3321 22.4934V23.5947V24.6958L21.8736 24.5874C21.6216 24.5277 21.2623 24.2944 21.0755 24.0689C20.4703 23.3385 19.8129 23.6799 20.2249 24.5107C20.3958 24.8549 20.7711 25.0985 21.9987 25.6623C22.1362 25.7256 22.2729 25.9805 22.3024 26.229C22.3789 26.8717 23.0451 26.7741 23.1646 26.1028C23.2313 25.7279 23.3891 25.5801 23.9157 25.4002C24.8583 25.0782 25.166 24.6321 25.166 23.5883C25.166 22.8576 25.0938 22.653 24.7076 22.2903C24.4555 22.0536 24.0053 21.8085 23.7074 21.7456L23.1656 21.6314V20.4774C23.1656 19.1623 23.2948 19.0693 24.0293 19.8557C24.4174 20.2714 24.5854 20.3512 24.7946 20.2191C24.9421 20.126 25.0908 19.9658 25.125 19.863C25.2104 19.6072 24.0289 18.5176 23.5997 18.4559C23.4083 18.4284 23.2243 18.2563 23.1898 18.0725ZM18.7158 19.1605C19.2229 18.9984 19.3401 18.8853 19.2992 18.5985C19.2326 18.1309 18.7635 18.091 17.9001 18.4796C16.671 19.0326 15.664 20.6893 15.664 22.1582C15.664 22.9555 16.0817 24.1341 16.5556 24.6738C17.584 25.8448 19.4268 26.4863 19.3014 25.6297C19.2662 25.3904 19.082 25.2216 18.7636 25.1369C18.15 24.9738 17.1941 24.0714 16.8944 23.3725C16.1806 21.7084 17.0523 19.6924 18.7158 19.1605ZM28.6179 24.795C30.3943 22.956 29.7577 19.6079 27.4232 18.5101C26.548 18.0985 25.8618 18.0532 25.7295 18.398C25.5863 18.7714 25.76 18.926 26.581 19.156C27.3682 19.3764 28.2152 20.158 28.5112 20.9368C28.7366 21.5298 28.702 22.7519 28.4422 23.3725C28.172 24.0184 26.9512 25.1599 26.531 25.1599C26.3654 25.1599 26.0872 25.2643 25.9127 25.392C25.647 25.5863 25.6306 25.6665 25.812 25.8851C26.2344 26.3943 27.5772 25.8726 28.6179 24.795Z" stroke="#2A1E75" stroke-width="2" mask="url(#path-1-inside-1_117:1591)"/>
<path d="M36.7797 17.2666C36.7185 17.3276 36.6683 20.3106 36.6683 23.8953L36.6682 30.4129L36.2933 30.8453C36.087 31.0831 35.7545 31.3644 35.5543 31.4707C35.2889 31.6112 32.114 31.6636 23.8434 31.6636H12.4966V32.3807C12.4966 32.7751 12.5866 33.1878 12.6966 33.2979C12.8373 33.4386 13.7809 33.498 15.8757 33.498H18.8545L18.8013 33.8732C18.7505 34.2309 18.6679 34.2506 17.0308 34.2961L15.3135 34.3436L15.3637 35.2133L15.4139 36.0828L27.0831 36.1288C33.5012 36.154 38.921 36.1338 39.1274 36.084L39.5025 35.9931V28.492V20.9908H39.0023H38.5022V27.3156V33.6406L38.063 33.9861C37.6322 34.3251 37.4672 34.3318 29.4123 34.3318C22.0598 34.3318 21.1902 34.3041 21.0991 34.0666C21.0431 33.9207 21.0396 33.7331 21.0911 33.6497C21.1453 33.562 24.5771 33.498 29.2267 33.498C35.2592 33.498 37.3186 33.448 37.4687 33.2979C37.6185 33.1479 37.6687 31.1423 37.6687 25.2991C37.6687 17.7597 37.6581 17.4949 37.3463 17.3279C36.9666 17.1246 36.9259 17.1201 36.7797 17.2666Z" stroke="#2A1E75" stroke-width="2" mask="url(#path-1-inside-1_117:1591)"/>
<path d="M23.1656 23.659C23.1656 24.7402 23.2991 24.8644 23.9619 24.4C24.6432 23.9227 24.2673 22.6585 23.4441 22.6585C23.2148 22.6585 23.1656 22.8352 23.1656 23.659Z" stroke="#2A1E75" stroke-width="2" mask="url(#path-1-inside-1_117:1591)"/>
<path d="M21.6971 19.6159C21.1723 20.07 21.0941 20.5863 21.4901 20.9823C22.0965 21.589 22.3321 21.4309 22.3321 20.417C22.3321 19.3881 22.1809 19.1973 21.6971 19.6159Z" stroke="#2A1E75" stroke-width="2" mask="url(#path-1-inside-1_117:1591)"/>
</svg>
