<svg width="50" height="50" viewBox="0 0 50 50" fill="none" xmlns="http://www.w3.org/2000/svg">
<path fill-rule="evenodd" clip-rule="evenodd" d="M23.1857 0.0201848C21.1348 0.114666 18.5064 0.714356 15.9315 1.67525C14.8868 2.06519 14.7709 2.12988 14.8595 2.27402C14.8965 2.33426 14.8215 2.35583 14.6926 2.32198C14.4659 2.26239 12.3403 3.29149 11.9246 3.66223C11.8117 3.76286 11.6654 3.84649 11.5994 3.84793C11.4599 3.85107 9.91273 4.98315 9.01344 5.74017C7.42753 7.0752 4.98863 9.82013 4.13409 11.2317C3.96097 11.5175 3.78161 11.7809 3.73543 11.8168C3.68913 11.8527 3.50443 12.1762 3.32481 12.5355C3.14505 12.8949 2.88297 13.3947 2.74224 13.6463C2.6015 13.8979 2.29376 14.5741 2.05821 15.1491C1.82279 15.7241 1.58867 16.2534 1.5382 16.3252C1.4876 16.3971 1.37119 16.7206 1.27937 17.044C1.18754 17.3674 1.03874 17.8673 0.948604 18.1548C0.331694 20.1235 -0.111836 23.9193 0.0248648 26.0609C0.144137 27.9294 0.377739 29.716 0.622786 30.6347C0.990357 32.0121 1.43714 33.4923 1.58906 33.8363C1.68427 34.052 1.81889 34.3754 1.88808 34.5551C2.65262 36.5404 4.84309 40.0853 6.19878 41.5314C8.01244 43.4663 9.06104 44.4089 10.6847 45.5643C11.2649 45.9774 11.7983 46.3618 11.8699 46.4185C11.9414 46.4752 12.2926 46.6579 12.6503 46.8244C13.0079 46.9908 13.3884 47.1997 13.4957 47.2885C14.0392 47.7386 17.3636 48.9967 18.8385 49.3103C19.0943 49.3646 19.3658 49.4478 19.4416 49.4948C19.8198 49.7298 22.7086 49.9896 25.0504 49.9994C27.8778 50.0111 29.0721 49.864 31.5751 49.1952C33.0091 48.8121 33.2999 48.7115 34.7611 48.0938C35.6522 47.717 37.5125 46.7576 38.1435 46.3493C39.2028 45.6641 39.8446 45.2141 40.2292 44.8874C40.4463 44.703 40.8508 44.3757 41.1279 44.1601C42.3734 43.1911 44.6772 40.6003 45.8924 38.8022C46.5651 37.8065 47.3755 36.2603 48.0839 34.6204C50.0884 29.9808 50.5534 24.1629 49.3217 19.1349C49.0098 17.8615 48.4874 16.2112 48.3537 16.0768C48.2822 16.0051 48.2237 15.8462 48.2237 15.7237C48.2237 15.3479 46.4971 12.0704 45.7524 11.0327C44.6582 9.50781 43.6624 8.31078 42.5999 7.24299C41.5864 6.22447 41.4711 6.12163 40.6215 5.47659C40.3392 5.26215 39.9648 4.95453 39.7896 4.79275C39.6145 4.63109 39.4254 4.49872 39.3694 4.49872C39.3134 4.49872 39.1903 4.42148 39.0957 4.327C38.5897 3.82127 35.6792 2.21822 34.4366 1.76071C34.1862 1.66858 33.8 1.51333 33.5785 1.41572C33.0218 1.17069 29.885 0.373805 28.7786 0.196341C27.9202 0.0587354 24.6119 -0.0455472 23.1857 0.0201848ZM15.5768 2.07343C15.5768 2.10518 15.5182 2.16739 15.4467 2.21182C15.3752 2.25625 15.3166 2.23024 15.3166 2.15419C15.3166 2.07813 15.3752 2.0158 15.4467 2.0158C15.5182 2.0158 15.5768 2.04167 15.5768 2.07343ZM34.6012 8.19042C35.3785 8.42094 36.6403 9.70644 36.9422 10.5753C37.4481 12.0314 37.1715 12.9362 35.4843 15.3451C34.8045 16.3154 34.2148 17.1387 34.1737 17.1747C34.1326 17.2106 33.9582 17.4458 33.7862 17.6974C33.6143 17.9489 33.4388 18.1842 33.3962 18.2201C33.3536 18.256 32.947 18.8065 32.4927 19.4434C31.9157 20.252 31.637 20.5476 31.5683 20.4235C31.5143 20.3256 31.2944 19.54 31.0797 18.6775C30.8649 17.815 30.5014 16.4037 30.2718 15.5412C29.6336 13.1435 29.6052 13.0023 29.535 11.8744C29.4582 10.6425 29.6896 9.99028 30.5036 9.14452C31.4682 8.14246 33.1326 7.75487 34.6012 8.19042ZM32.3387 10.1966C32.1508 10.2966 31.8434 10.5804 31.6559 10.8275C31.3831 11.1869 31.3149 11.421 31.3149 11.9986C31.3149 12.6543 31.3597 12.7676 31.8027 13.2344C32.0885 13.5355 32.5134 13.8151 32.8289 13.9096C33.3175 14.0561 33.4246 14.0423 33.9859 13.7608C35.1631 13.17 35.5566 11.9347 34.8898 10.9225C34.3347 10.0797 33.1782 9.75061 32.3387 10.1966ZM13.2637 17.3627C13.4986 17.4661 13.8371 17.5832 14.016 17.6229C14.6396 17.7613 14.6605 17.8217 14.446 18.8689C14.1538 20.2954 14.4289 21.5006 15.3291 22.7384C15.8285 23.4248 16.9996 24.4927 17.2532 24.4927C17.3327 24.4927 17.3977 24.55 17.3977 24.62C17.3977 24.6901 17.5764 24.8402 17.7948 24.9538C18.5767 25.3599 18.9585 25.9134 18.9585 26.6403C18.9585 26.9959 18.9046 27.107 18.7309 27.1092C18.6058 27.1108 18.357 27.2354 18.1781 27.3861L17.853 27.66L18.2061 27.4486C18.7889 27.0994 18.8253 27.1573 18.7524 28.3151C18.6513 29.9221 18.5808 30.2842 18.3981 30.1376C18.2571 30.0245 17.0158 29.3433 15.6119 28.6086C15.3094 28.4502 15.0997 28.2827 15.1459 28.2362C15.192 28.1898 15.0973 28.1518 14.9353 28.1518C14.7732 28.1518 14.4561 28.0715 14.2307 27.9735C12.7481 27.3286 12.1202 27.1466 10.9841 27.0325C10.2337 26.9571 10.1121 26.9111 10.1886 26.7309C10.2383 26.6139 10.3265 26.2831 10.3845 25.9956C10.5421 25.2145 10.9257 23.7428 11.6109 21.2911C11.7313 20.8598 11.8764 20.3012 11.9331 20.0496C11.9898 19.7981 12.096 19.4158 12.1691 19.2002C12.2424 18.9846 12.3779 18.4407 12.4705 17.9914C12.5631 17.5423 12.6833 17.1747 12.7377 17.1747C12.792 17.1747 13.0288 17.2593 13.2637 17.3627ZM26.6736 17.355C26.7115 17.4542 26.7771 18.5863 26.8194 19.8706C26.8618 21.155 26.9256 22.9409 26.9611 23.8393C27.0074 25.0104 26.9791 25.5626 26.8616 25.7897C26.7056 26.091 25.7109 26.7028 25.3644 26.7106C25.2427 26.7134 25.2012 26.2949 25.1998 25.0481C25.1986 23.9733 25.1399 23.266 25.0342 23.0553C24.7772 22.5421 24.1223 22.5587 22.7696 23.1129C22.1451 23.3686 21.533 23.578 21.4095 23.578C21.2861 23.578 21.1489 23.6368 21.1046 23.7087C21.0604 23.7805 20.9713 23.8393 20.9068 23.8393C20.7827 23.8393 20.8296 22.911 21.0603 20.798L21.1997 19.5208L21.9325 19.1831C22.3356 18.9974 22.9581 18.7299 23.3158 18.5886C24.0329 18.3054 25.4743 17.642 25.9822 17.3613C26.3985 17.1313 26.5875 17.1296 26.6736 17.355ZM29.3587 17.3885C29.8275 17.6665 30.0643 18.1059 30.2656 19.0695C30.3556 19.5008 30.5024 20.0888 30.592 20.3763C30.9534 21.5358 31.0371 21.832 31.1204 22.2423L31.2072 22.6709L31.5917 22.177C31.8032 21.9054 32.0471 21.5949 32.1336 21.4871C32.2202 21.3793 32.5248 20.9676 32.8105 20.5723C33.4899 19.632 34.0363 19.1349 34.3905 19.1349C34.9143 19.1349 35.4106 19.8017 35.5818 20.7354C35.6673 21.2013 35.7372 21.7317 35.7372 21.914C35.7372 22.2599 35.7552 22.2494 34.3086 22.7527C33.6575 22.9793 32.5906 23.6448 32.0953 24.1334C31.5229 24.698 31.0548 25.2707 31.0548 25.4063C31.0548 25.4788 31.003 25.5382 30.94 25.5382C30.8767 25.5382 30.7875 25.641 30.7416 25.7669C30.5466 26.3011 30.2459 26.7143 30.052 26.7143C29.7099 26.7143 28.9839 26.0768 28.7871 25.6038C28.6612 25.3009 28.5794 24.3499 28.5263 22.5733C28.4838 21.1493 28.4157 19.3521 28.3752 18.5795L28.3014 17.1747H28.65C28.8417 17.1747 29.1606 17.2708 29.3587 17.3885ZM17.2044 18.7252C18.6594 19.2718 18.8992 19.4103 19.2019 19.8784C19.4774 20.3047 19.502 20.4538 19.4326 21.2806C19.3399 22.3862 19.1622 23.4169 19.0439 23.5359C18.8503 23.7304 17.1972 22.6177 16.724 21.9747C16.2363 21.3117 16.097 20.8814 16.097 20.0369C16.097 19.4085 16.3521 18.4815 16.525 18.4815C16.542 18.4815 16.8478 18.5911 17.2044 18.7252ZM36.1274 24.4997C36.1274 24.7191 36.21 25.2924 36.3108 25.7738C36.4118 26.2551 36.5632 27.1782 36.6473 27.8251C36.7315 28.4719 36.855 29.2891 36.9218 29.641C36.9886 29.9929 37.0168 30.3073 36.9846 30.3399C36.8622 30.4628 35.5113 30.0854 34.698 29.7011C34.2324 29.4809 33.3993 29.0022 32.8467 28.6371C31.9378 28.0365 31.8498 27.9414 31.9222 27.6378C32.3144 25.9933 34.2149 24.363 36.0299 24.114C36.0836 24.1067 36.1274 24.2803 36.1274 24.4997ZM23.5628 25.8233C23.7198 26.9959 23.5058 27.7561 22.8288 28.4295C22.5488 28.7079 22.2699 28.9359 22.2092 28.9359C22.1484 28.9359 22.0181 29.0094 21.9195 29.0992C21.6274 29.3655 20.3676 30.003 20.289 29.9242C20.2493 29.8842 20.2946 28.9956 20.3898 27.9495C20.5569 26.114 20.5754 26.0386 20.9189 25.7929C21.1147 25.6528 21.3571 25.5382 21.4575 25.5382C21.5581 25.5382 21.7538 25.4518 21.8927 25.3463C22.0315 25.2408 22.2734 25.1525 22.4302 25.1503C22.5869 25.148 22.7534 25.0839 22.8001 25.008C22.8469 24.932 23.0113 24.8879 23.1654 24.91C23.4064 24.9445 23.4622 25.073 23.5628 25.8233ZM17.1133 27.9797C17.207 28.0174 17.3193 28.0127 17.3625 27.9693C17.4057 27.926 17.3289 27.8951 17.1918 27.9007C17.0403 27.907 17.0095 27.938 17.1133 27.9797ZM27.2001 28.4968C27.2457 28.8301 27.2829 29.9972 27.2829 31.0901C27.2829 33.368 27.3263 33.2736 26.0472 33.7714C25.618 33.9384 25.2081 34.1194 25.1365 34.1736C25.0647 34.2277 24.7062 34.3908 24.3397 34.5359C23.7074 34.7863 23.2946 34.9679 21.7305 35.6838C21.3593 35.8537 20.9915 35.9926 20.9131 35.9926C20.8345 35.9926 20.6407 36.0746 20.4823 36.175C19.7283 36.6524 19.6691 36.6049 19.6423 35.5021C19.6146 34.3536 19.7859 33.4195 20.1624 32.6673C20.4573 32.0783 21.5278 31.0094 22.1293 30.7034C22.3526 30.5897 22.6232 30.4389 22.7305 30.3684C22.8378 30.2977 23.1304 30.1514 23.3808 30.0432C23.6312 29.9352 23.9518 29.774 24.0933 29.6853C24.2348 29.5966 24.9327 29.1564 25.6441 28.7072C26.3556 28.258 26.9781 27.8904 27.0275 27.8904C27.077 27.8904 27.1546 28.1633 27.2001 28.4968ZM15.5525 28.241C15.6462 28.2788 15.7585 28.2741 15.8017 28.2307C15.8448 28.1873 15.7681 28.1565 15.631 28.1621C15.4795 28.1684 15.4487 28.1993 15.5525 28.241ZM29.6441 28.6958C29.834 28.8278 30.0266 28.9359 30.0721 28.9359C30.1177 28.9359 30.3134 29.0443 30.5072 29.1768C31.8941 30.1248 32.1043 30.25 33.6292 31.0364C34.2226 31.3425 34.7438 31.6509 34.7875 31.722C34.8357 31.8005 34.7953 31.8098 34.6843 31.7455C34.5838 31.6873 34.6735 31.8252 34.8836 32.0519C35.0937 32.2786 35.2941 32.4642 35.329 32.4642C35.3638 32.4642 35.2549 32.3172 35.0869 32.1375C34.7868 31.8166 34.7862 31.8108 35.0537 31.8108C35.2034 31.8108 35.4917 31.8946 35.6942 31.997C35.8967 32.0994 36.3008 32.2524 36.5922 32.3369C37.2499 32.528 37.3802 32.7347 37.6422 34.0022C37.9613 35.5464 38 35.9926 37.8156 35.9926C37.6366 35.9926 34.9789 35.1348 34.3715 34.8809C33.8155 34.6485 33.1038 34.4076 32.8758 34.3745C32.7684 34.3589 32.4173 34.2668 32.0953 34.1696C30.0004 33.5377 29.4871 33.3365 29.1773 33.0251L28.8369 32.6831L28.8503 30.4907C28.8649 28.0809 28.8403 28.1367 29.6441 28.6958ZM12.2844 29.1882C14.0772 29.6336 14.9004 29.9808 16.7272 31.0623C18.2928 31.9892 18.3082 32.0102 18.3082 33.2275C18.3082 34.1284 18.0824 36.3781 17.9807 36.4918C17.9402 36.5368 16.9651 36.149 15.8659 35.6504C15.4883 35.4793 15.1218 35.3392 15.0512 35.3392C14.9807 35.3392 14.8212 35.2845 14.697 35.2179C14.5728 35.1511 14.1932 34.9747 13.8534 34.8259C13.5135 34.6769 12.9576 34.4321 12.6177 34.282C12.2779 34.1317 11.8829 33.9622 11.7398 33.9052C11.5967 33.8482 11.0699 33.6385 10.5692 33.4392C10.0684 33.2399 9.60317 33.0272 9.53514 32.9665C9.46725 32.9059 9.291 32.8563 9.14377 32.8563C8.57745 32.8563 8.55274 32.4785 9.02307 31.0198C9.26525 30.2689 9.46334 29.6008 9.46347 29.5349C9.46347 29.469 9.56597 29.3108 9.69122 29.1832C10.0013 28.8674 11.0001 28.8693 12.2844 29.1882ZM35.0703 33.7383C34.9086 33.9456 34.9131 33.9502 35.1194 33.7877C35.2445 33.6891 35.347 33.5861 35.347 33.559C35.347 33.4515 35.2402 33.5206 35.0703 33.7383ZM33.8838 34.1189C33.9733 34.1552 34.1196 34.1552 34.2089 34.1189C34.2984 34.0827 34.2252 34.053 34.0464 34.053C33.8675 34.053 33.7944 34.0827 33.8838 34.1189Z" fill="#2A1E75"/>
</svg>
